<svg xmlns="http://www.w3.org/2000/svg" version="1.1" xmlns:xlink="http://www.w3.org/1999/xlink" xmlns:svgjs="http://svgjs.com/svgjs" width="1440" height="560" preserveAspectRatio="none" viewBox="0 0 1440 560"><g mask="url(&quot;#SvgjsMask1024&quot;)" fill="none"><rect width="1440" height="560" x="0" y="0" fill="#0e2a47"></rect><path d="M 0,86 C 144,117.6 432,255.2 720,244 C 1008,232.8 1296,72.8 1440,30L1440 560L0 560z" fill="#184a7e"></path><path d="M 0,307 C 19.2,343.2 57.6,492.2 96,488 C 134.4,483.8 153.6,276 192,286 C 230.4,296 249.6,533.8 288,538 C 326.4,542.2 345.6,316.8 384,307 C 422.4,297.2 441.6,489.6 480,489 C 518.4,488.4 537.6,308.8 576,304 C 614.4,299.2 633.6,463.8 672,465 C 710.4,466.2 729.6,291.4 768,310 C 806.4,328.6 825.6,560 864,558 C 902.4,556 921.6,316.2 960,300 C 998.4,283.8 1017.6,479.6 1056,477 C 1094.4,474.4 1113.6,273.4 1152,287 C 1190.4,300.6 1209.6,522.4 1248,545 C 1286.4,567.6 1305.6,402 1344,400 C 1382.4,398 1420.8,508 1440,535L1440 560L0 560z" fill="#2264ab"></path></g><defs><mask id="SvgjsMask1024"><rect width="1440" height="560" fill="#ffffff"></rect></mask></defs></svg>